# xmcd CD database file
# Copyright (C) 1997 Ti Kan
#
# Track frame offsets:
#  150
#  14632
#  28457
#  44495
#  64742
#  79167
#  98307
#  112115
#  130150
#  148055
#  165627
#
# Disc length: 2478 seconds
#
# Revision: 1
# Processed by: cddbd v1.4b41PL1 Copyright (c) Steve Scherf et al.
# Submitted via: CDWizzard Release:4.30
#
DISCID=9909ac0b
DTITLE=Mindy McCready - If I Don't Stay The Night
DYEAR=1900
DGENRE=
TTITLE0=What If I Don't
TTITLE1=This Is Me
TTITLE2=If I Don't Stay The Night
TTITLE3=Cross Against The Moon
TTITLE4=For A Good Time Call
TTITLE5=Oh Romeo
TTITLE6=The Other Side Of The Kiss
TTITLE7=You'll Never Know
TTITLE8=Fine Art of Holdong A Woman
TTITLE9=Only A Whisper
TTITLE10=Long, Long Time
EXTD=
EXTT0=
EXTT1=
EXTT2=
EXTT3=
EXTT4=
EXTT5=
EXTT6=
EXTT7=
EXTT8=
EXTT9=
EXTT10=
PLAYORDER=
